<svg xmlns="http://www.w3.org/2000/svg" xmlns:xlink="http://www.w3.org/1999/xlink" width="500" zoomAndPan="magnify" viewBox="0 0 375 374.999991" height="500" preserveAspectRatio="xMidYMid meet" version="1.0"><defs><clipPath id="1711f94849"><path d="M 252.355469 121.542969 L 271.855469 121.542969 L 271.855469 152.292969 L 252.355469 152.292969 Z M 252.355469 121.542969 " clip-rule="nonzero"/></clipPath><clipPath id="c319b85b40"><path d="M 238 198 L 343 198 L 343 358.621094 L 238 358.621094 Z M 238 198 " clip-rule="nonzero"/></clipPath><clipPath id="7dbe89ef55"><path d="M 32 70 L 294 70 L 294 358.621094 L 32 358.621094 Z M 32 70 " clip-rule="nonzero"/></clipPath></defs><g clip-path="url(#1711f94849)"><path fill="#f2ee1b" d="M 259.828125 121.539062 L 271.804688 121.539062 L 262.113281 135.382812 L 271.804688 135.742188 L 257.542969 152.28125 L 259.644531 139.519531 L 252.421875 140.054688 L 259.828125 121.539062 " fill-opacity="1" fill-rule="nonzero"/></g><g clip-path="url(#c319b85b40)"><path fill="#e7e3dd" d="M 338.46875 318.457031 L 268.980469 198.125 L 238.34375 251.25 L 292.449219 344.988281 C 297.335938 353.464844 306.265625 358.289062 315.457031 358.289062 C 319.957031 358.289062 324.519531 357.113281 328.691406 354.703125 C 341.46875 347.335938 345.769531 331.167969 338.46875 318.457031 Z M 338.46875 318.457031 " fill-opacity="1" fill-rule="nonzero"/></g><g clip-path="url(#7dbe89ef55)"><path fill="#e7e3dd" d="M 289.710938 132.023438 L 260.246094 183.066406 L 229.542969 236.191406 L 182.085938 318.394531 C 167.875 343.035156 141.34375 358.351562 112.921875 358.351562 C 84.046875 358.351562 58.167969 343.425781 43.695312 318.394531 C 29.222656 293.425781 29.222656 263.503906 43.695312 238.472656 L 126.742188 94.738281 C 135.347656 79.808594 150.796875 70.878906 168.007812 70.878906 C 185.214844 70.878906 200.664062 79.808594 209.335938 94.738281 L 212.332031 99.953125 L 220.9375 114.816406 L 190.234375 167.941406 L 168.007812 129.480469 L 89.78125 265.003906 C 82.808594 277.066406 87.433594 287.753906 89.78125 291.796875 C 92.128906 295.839844 99.039062 305.226562 112.988281 305.226562 C 122.503906 305.226562 131.4375 300.074219 136.128906 291.796875 L 198.90625 183.066406 L 229.609375 129.9375 L 243.6875 105.492188 C 251.054688 92.78125 267.285156 88.414062 279.996094 95.78125 C 292.707031 103.082031 297.074219 119.3125 289.710938 132.023438 Z M 289.710938 132.023438 " fill-opacity="1" fill-rule="nonzero"/></g><path fill="#e7e3dd" d="M 276.800781 68.921875 C 291.011719 100.929688 338.402344 81.308594 325.886719 48.585938 C 311.613281 16.644531 264.222656 36.265625 276.800781 68.921875 Z M 276.800781 68.921875 " fill-opacity="1" fill-rule="nonzero"/></svg>